<?xml version="1.0" encoding="UTF-8"?>
<svg id="Laag_2" data-name="Laag 2" xmlns="http://www.w3.org/2000/svg" viewBox="0 0 170.45 53.33">
  <g id="Laag_1-2" data-name="Laag 1" fill="#FFFFFF">
    <g>
      <path d="M42.31,33.47c0,2.95-.55,5.65-1.66,8.09-1.11,2.44-2.62,4.53-4.52,6.28-1.91,1.75-4.14,3.1-6.71,4.06-2.57.96-5.32,1.44-8.26,1.44s-5.65-.49-8.22-1.48c-2.57-.98-4.81-2.36-6.73-4.11-1.92-1.76-3.44-3.85-4.54-6.28-1.11-2.43-1.66-5.09-1.66-8V0h10.6v17.58c.57-.66,1.26-1.24,2.07-1.76.81-.52,1.69-.94,2.63-1.27.94-.33,1.91-.58,2.92-.76,1.01-.18,1.98-.26,2.94-.26,2.94,0,5.69.5,8.26,1.49,2.56,1,4.8,2.39,6.71,4.17,1.91,1.78,3.42,3.88,4.52,6.31,1.11,2.43,1.66,5.08,1.66,7.96ZM31.67,33.47c0-1.45-.28-2.81-.83-4.06-.55-1.25-1.31-2.34-2.26-3.25-.95-.91-2.07-1.63-3.35-2.14-1.28-.52-2.64-.77-4.08-.77s-2.8.29-4.08.86c-1.28.57-2.39,1.34-3.35,2.29-.95.95-1.7,2.04-2.24,3.27s-.81,2.5-.81,3.81c0,1.45.27,2.8.81,4.04.54,1.24,1.29,2.32,2.24,3.23.95.91,2.07,1.63,3.35,2.16,1.28.53,2.64.79,4.08.79s2.8-.26,4.08-.79c1.28-.53,2.39-1.25,3.35-2.16.95-.91,1.71-1.99,2.26-3.23.55-1.24.83-2.59.83-4.04Z"/>
      <path d="M80.81,33.47c0,2.81-.55,5.43-1.66,7.86-1.11,2.43-2.62,4.52-4.52,6.29-1.91,1.77-4.14,3.16-6.71,4.18-2.57,1.02-5.32,1.53-8.26,1.53s-5.65-.51-8.22-1.53-4.81-2.41-6.73-4.18c-1.92-1.77-3.44-3.87-4.54-6.29-1.11-2.43-1.66-5.04-1.66-7.86s.55-5.51,1.66-7.95c1.11-2.44,2.62-4.54,4.54-6.31,1.92-1.77,4.16-3.16,6.73-4.17,2.57-1.01,5.3-1.51,8.22-1.51s5.69.47,8.26,1.42c2.56.95,4.8,2.3,6.71,4.04,1.91,1.75,3.42,3.84,4.52,6.29,1.11,2.45,1.66,5.17,1.66,8.17ZM70.17,33.47c0-1.55-.28-2.95-.83-4.2-.55-1.25-1.31-2.33-2.26-3.23-.95-.9-2.07-1.59-3.35-2.07-1.28-.48-2.64-.72-4.08-.72s-2.8.24-4.08.72c-1.28.48-2.39,1.17-3.33,2.07-.94.9-1.68,1.98-2.22,3.23-.54,1.25-.81,2.65-.81,4.2,0,1.45.27,2.8.81,4.04.54,1.24,1.28,2.32,2.22,3.23.94.91,2.05,1.63,3.33,2.16,1.28.53,2.64.79,4.08.79s2.8-.25,4.08-.74,2.39-1.18,3.35-2.07c.95-.89,1.71-1.97,2.26-3.23.55-1.27.83-2.66.83-4.18Z"/>
      <path d="M119.31,33.47c0,2.81-.55,5.43-1.66,7.86-1.11,2.43-2.62,4.52-4.52,6.29-1.91,1.77-4.14,3.16-6.71,4.18-2.57,1.02-5.32,1.53-8.26,1.53s-5.65-.51-8.22-1.53-4.81-2.41-6.73-4.18c-1.92-1.77-3.44-3.87-4.54-6.29-1.11-2.43-1.66-5.04-1.66-7.86s.55-5.51,1.66-7.95c1.11-2.44,2.62-4.54,4.54-6.31,1.92-1.77,4.16-3.16,6.73-4.17,2.57-1.01,5.3-1.51,8.22-1.51s5.69.47,8.26,1.42c2.56.95,4.8,2.3,6.71,4.04,1.91,1.75,3.42,3.84,4.52,6.29,1.11,2.45,1.66,5.17,1.66,8.17ZM108.67,33.47c0-1.55-.28-2.95-.83-4.2-.55-1.25-1.31-2.33-2.26-3.23-.95-.9-2.07-1.59-3.35-2.07-1.28-.48-2.64-.72-4.08-.72s-2.8.24-4.08.72c-1.28.48-2.39,1.17-3.33,2.07-.94.9-1.68,1.98-2.22,3.23-.54,1.25-.81,2.65-.81,4.2,0,1.45.27,2.8.81,4.04.54,1.24,1.28,2.32,2.22,3.23.94.91,2.05,1.63,3.33,2.16,1.28.53,2.64.79,4.08.79s2.8-.25,4.08-.74,2.39-1.18,3.35-2.07c.95-.89,1.71-1.97,2.26-3.23.55-1.27.83-2.66.83-4.18Z"/>
      <path d="M168.65,52.63h-6.91c-1,0-1.8-.81-1.8-1.8v-22.1c0-.66-.14-1.28-.41-1.86-.27-.59-.65-1.1-1.14-1.55-.49-.44-1.06-.79-1.7-1.04-.64-.25-1.33-.37-2.05-.37s-1.4.12-2.03.37-1.19.59-1.66,1.04c-.48.45-.85.96-1.12,1.55-.27.59-.41,1.21-.41,1.86v22.1c0,1-.81,1.8-1.8,1.8h-6.95c-1,0-1.8-.81-1.8-1.8v-22.1c0-.66-.14-1.28-.41-1.86-.27-.59-.65-1.1-1.14-1.55-.49-.44-1.06-.79-1.7-1.04-.64-.25-1.33-.37-2.05-.37s-1.4.12-2.03.37-1.19.59-1.66,1.04c-.48.45-.85.96-1.12,1.55-.27.59-.41,1.21-.41,1.86v22.1c0,1-.81,1.8-1.8,1.8h-6.95c-1,0-1.8-.81-1.8-1.8V16.78c0-1,.81-1.8,1.8-1.8h0c.48,0,.94.19,1.28.53l1.27,1.28c.59.6,1.52.71,2.23.25,1.15-.74,2.38-1.34,3.69-1.8,1.77-.62,3.6-.93,5.51-.93s3.82.33,5.67.98c1.32.47,2.52,1.18,3.6,2.14.69.61,1.71.67,2.4.06.33-.3.68-.57,1.05-.83.82-.56,1.69-1.02,2.61-1.37.92-.35,1.86-.6,2.84-.76.98-.15,1.95-.23,2.9-.23,2.19,0,4.25.38,6.17,1.12,1.92.75,3.6,1.78,5.03,3.08,1.43,1.3,2.56,2.83,3.38,4.59.82,1.76,1.24,3.63,1.24,5.62v22.1c0,1-.81,1.8-1.8,1.8Z"/>
    </g>
  </g>
</svg>
